<?xml version="1.0" encoding="utf-8"?>
<!-- Generator: Adobe Illustrator 26.0.1, SVG Export Plug-In . SVG Version: 6.00 Build 0)  -->
<svg version="1.1" id="Layer_1" xmlns="http://www.w3.org/2000/svg" xmlns:xlink="http://www.w3.org/1999/xlink" x="0px" y="0px"
	 viewBox="0 0 192 192" style="enable-background:new 0 0 192 192;" xml:space="preserve">
<style type="text/css">
	.st0{fill:#FC8DC8;stroke:#FC8DC8;stroke-width:3;stroke-miterlimit:10;}
	.st1{fill:#FFFFFF;stroke:#313E4F;stroke-width:3;stroke-linecap:round;stroke-linejoin:round;}
	.st2{fill:#F9C478;stroke:#F9C478;stroke-width:3;stroke-miterlimit:10;}
	.st3{fill:none;stroke:#313E4F;stroke-width:3;stroke-linecap:round;stroke-linejoin:round;}
	.st4{fill:none;stroke:#60BCEA;stroke-width:3;stroke-linecap:round;stroke-linejoin:round;}
</style>
<g id="front_edge">
	<path class="st0" d="M53,36.4h86c6.1,0,11.1,5,11.1,11.1v111.9c0,6.1-5,11.1-11.1,11.1H53c-6.1,0-11.1-5-11.1-11.1V47.5
		C41.9,41.3,46.9,36.4,53,36.4z"/>
	<rect x="55.3" y="46.1" class="st1" width="81.4" height="112"/>
	<rect x="67.6" y="30.6" class="st2" width="56.9" height="19.6"/>
	<circle class="st2" cx="96" cy="34.4" r="12.9"/>
	<line class="st3" x1="93.1" y1="67" x2="124.3" y2="67"/>
	<line class="st3" x1="93.1" y1="75.7" x2="116.5" y2="75.7"/>
	<polyline class="st4" points="67,73.1 72.6,80.9 82.7,64.2 	"/>
	<line class="st3" x1="93.1" y1="98.6" x2="124.3" y2="98.6"/>
	<line class="st3" x1="93.1" y1="107.3" x2="116.5" y2="107.3"/>
	<polyline class="st4" points="67,104.6 72.6,112.4 82.7,95.8 	"/>
	<line class="st3" x1="93.1" y1="130.2" x2="124.3" y2="130.2"/>
	<line class="st3" x1="93.1" y1="138.9" x2="116.5" y2="138.9"/>
	<polyline class="st4" points="67,136.2 72.6,144 82.7,127.3 	"/>
</g>
</svg>
