<?xml version="1.0" encoding="utf-8"?>
<!-- Generator: Adobe Illustrator 26.0.1, SVG Export Plug-In . SVG Version: 6.00 Build 0)  -->
<svg version="1.1" id="Layer_1" xmlns="http://www.w3.org/2000/svg" xmlns:xlink="http://www.w3.org/1999/xlink" x="0px" y="0px"
	 viewBox="0 0 192 192" style="enable-background:new 0 0 192 192;" xml:space="preserve">
<style type="text/css">
	.st0{fill:#F9C478;stroke:#F9C478;stroke-width:3;stroke-miterlimit:10;}
	.st1{fill:#FFFFFF;stroke:#313E4F;stroke-width:3;stroke-miterlimit:10;}
	.st2{fill:#313E4F;stroke:#313E4F;stroke-width:3;stroke-linecap:round;stroke-miterlimit:10;}
</style>
<g id="front_edge">
	<circle class="st0" cx="96" cy="96" r="74.3"/>
	<circle class="st1" cx="96" cy="96" r="56.4"/>
	<path class="st2" d="M123.7,76.7c-1.5-1.1-3.5-0.9-4.8,0.4l-31.1,31.1L75.8,96c-1.3-1.3-3.3-1.5-4.8-0.4c-1.5,1.2-1.7,3.4-0.5,4.9
		c0.1,0.1,0.2,0.2,0.2,0.3l14,14c1.7,1.8,4.6,1.8,6.3,0c0,0,0,0,0,0L124,81.8c1.3-1.3,1.4-3.5,0-4.9
		C123.9,76.8,123.8,76.8,123.7,76.7z"/>
</g>
</svg>
