<?xml version="1.0" encoding="utf-8"?>
<!-- Generator: Adobe Illustrator 26.0.1, SVG Export Plug-In . SVG Version: 6.00 Build 0)  -->
<svg version="1.1" id="Layer_1" xmlns="http://www.w3.org/2000/svg" xmlns:xlink="http://www.w3.org/1999/xlink" x="0px" y="0px"
	 viewBox="0 0 192 192" style="enable-background:new 0 0 192 192;" xml:space="preserve">
<style type="text/css">
	.st0{fill:#F9C478;stroke:#F9C478;stroke-width:3;stroke-miterlimit:10;}
	.st1{fill:#FFFFFF;stroke:#313E4F;stroke-width:3;stroke-linecap:round;stroke-linejoin:round;}
	.st2{fill:#60BCEA;stroke:#60BCEA;stroke-width:3;stroke-miterlimit:10;}
	.st3{fill:none;stroke:#313E4F;stroke-width:3;stroke-linecap:round;stroke-linejoin:round;}
</style>
<g id="front_edge">
	<circle class="st0" cx="96" cy="96" r="75.1"/>
	<circle class="st1" cx="96" cy="96" r="65.3"/>
	<polyline class="st1" points="84.2,71.6 96,96 131.6,76.5 	"/>
	<path class="st2" d="M88.8,96c0,4,3.2,7.2,7.2,7.2c4,0,7.2-3.2,7.2-7.2c0-4-3.2-7.2-7.2-7.2c0,0,0,0,0,0C92,88.8,88.8,92,88.8,96z"
		/>
	<line class="st3" x1="151.7" y1="96" x2="139.2" y2="96"/>
	<line class="st3" x1="96" y1="52.8" x2="96" y2="40.3"/>
	<line class="st3" x1="40.3" y1="96" x2="52.8" y2="96"/>
	<line class="st3" x1="96" y1="139.2" x2="96" y2="151.7"/>
	<line class="st3" x1="135.4" y1="135.4" x2="126.6" y2="126.5"/>
	<line class="st3" x1="126.6" y1="65.5" x2="135.4" y2="56.6"/>
	<line class="st3" x1="56.6" y1="56.6" x2="65.4" y2="65.5"/>
	<line class="st3" x1="65.4" y1="126.5" x2="56.6" y2="135.4"/>
</g>
</svg>
