<?xml version="1.0" encoding="utf-8"?>
<!-- Generator: Adobe Illustrator 26.0.1, SVG Export Plug-In . SVG Version: 6.00 Build 0)  -->
<svg version="1.1" id="Layer_1" xmlns="http://www.w3.org/2000/svg" xmlns:xlink="http://www.w3.org/1999/xlink" x="0px" y="0px"
	 viewBox="0 0 192 192" style="enable-background:new 0 0 192 192;" xml:space="preserve">
<style type="text/css">
	.st0{fill:#F9C478;stroke:#F9C478;stroke-width:3;stroke-miterlimit:10;}
	.st1{fill:#FC8DC8;stroke:#FC8DC8;stroke-width:3;stroke-miterlimit:10;}
	.st2{fill:#FFFFFF;stroke:#313E4F;stroke-width:3;stroke-miterlimit:10;}
	.st3{fill:none;stroke:#313E4F;stroke-width:3;stroke-linecap:round;stroke-linejoin:round;}
	.st4{fill:#FFFFFF;stroke:#313E4F;stroke-width:3;stroke-linecap:round;stroke-linejoin:round;}
	.st5{fill:#60BCEA;stroke:#60BCEA;stroke-width:3;stroke-miterlimit:10;}
</style>
<g id="front_edge">
	<path class="st0" d="M28.3,64.4h113.6c3.4,0,6.1,2.8,6.1,6.2v82.8c0,3.4-2.8,6.1-6.1,6.1H28.3c-3.4,0-6.1-2.8-6.1-6.1V70.5
		C22.2,67.1,24.9,64.4,28.3,64.4z"/>
	<path class="st1" d="M38.3,55.3h113.6c3.4,0,6.1,2.8,6.1,6.2v82.8c0,3.4-2.8,6.1-6.1,6.1H38.3c-3.4,0-6.2-2.8-6.2-6.1V61.4
		C32.1,58,34.9,55.3,38.3,55.3z"/>
	<path class="st2" d="M49.8,43.3h113.6c3.4,0,6.1,2.8,6.1,6.2v82.8c0,3.4-2.8,6.1-6.1,6.1H49.8c-3.4,0-6.2-2.8-6.2-6.1V49.5
		C43.6,46.1,46.4,43.3,49.8,43.3z"/>
	<line class="st3" x1="121.4" y1="72.5" x2="152.5" y2="72.5"/>
	<line class="st3" x1="121.4" y1="86.9" x2="152.5" y2="86.9"/>
	<line class="st3" x1="121.4" y1="101.4" x2="152.5" y2="101.4"/>
	<line class="st3" x1="121.4" y1="115.8" x2="152.5" y2="115.8"/>
	<circle class="st2" cx="79.9" cy="83.3" r="12.9"/>
	<path class="st4" d="M59.3,118.6c3.1-11.4,14.9-18,26.2-14.9c7.3,2,13,7.7,14.9,15"/>
	<rect x="78.1" y="34.2" class="st5" width="57" height="18.2"/>
</g>
</svg>
