<?xml version="1.0" encoding="utf-8"?>
<!-- Generator: Adobe Illustrator 26.0.1, SVG Export Plug-In . SVG Version: 6.00 Build 0)  -->
<svg version="1.1" id="Layer_1" xmlns="http://www.w3.org/2000/svg" xmlns:xlink="http://www.w3.org/1999/xlink" x="0px" y="0px"
	 viewBox="0 0 192 192" style="enable-background:new 0 0 192 192;" xml:space="preserve">
<style type="text/css">
	.st0{fill:#60BCEA;stroke:#60BCEA;stroke-width:3;stroke-miterlimit:10;}
	.st1{fill:#FFFFFF;stroke:#313E4F;stroke-width:3;stroke-linecap:round;stroke-linejoin:round;}
	.st2{fill:none;stroke:#313E4F;stroke-width:3;stroke-linecap:round;stroke-linejoin:round;}
	.st3{fill:#FC8DC8;stroke:#FC8DC8;stroke-width:3;stroke-miterlimit:10;}
</style>
<g id="front_edge">
	<path class="st0" d="M29,21.6h102.9c2.7,0,4.9,2.2,4.9,4.9v124.2c0,2.7-2.2,4.9-4.9,4.9H29c-2.7,0-4.9-2.2-4.9-4.9V26.5
		C24.1,23.8,26.3,21.6,29,21.6z"/>
	<path class="st1" d="M48.3,36.4h102.9c2.7,0,4.9,2.2,4.9,4.9v124.2c0,2.7-2.2,4.9-4.9,4.9H48.3c-2.7,0-4.9-2.2-4.9-4.9V41.3
		C43.4,38.6,45.6,36.4,48.3,36.4z"/>
	<line class="st2" x1="58.4" y1="60.2" x2="141.1" y2="60.2"/>
	<line class="st2" x1="58.4" y1="73.5" x2="141.1" y2="73.5"/>
	<line class="st2" x1="58.4" y1="86.8" x2="141.1" y2="86.8"/>
	<line class="st2" x1="58.4" y1="100.1" x2="141.1" y2="100.1"/>
	<line class="st2" x1="58.4" y1="113.3" x2="141.1" y2="113.3"/>
	<line class="st2" x1="58.4" y1="126.6" x2="141.1" y2="126.6"/>
	<line class="st2" x1="58.4" y1="139.9" x2="89.9" y2="139.9"/>
	<path class="st3" d="M162.9,112.1l-12.3-12.2l0,0l6-6.1c2.3-2.4,6.1-2.4,8.5,0l3.8,3.8c2.4,2.3,2.4,6.1,0,8.5L162.9,112.1
		L162.9,112.1z"/>
	<polyline class="st1" points="138.5,136.7 120.5,142.9 126.2,124.5 	"/>
	
		<rect x="127.2" y="109.7" transform="matrix(0.704 -0.7102 0.7102 0.704 -41.2578 137.6584)" class="st1" width="34.6" height="17.3"/>
</g>
</svg>
