<?xml version="1.0" encoding="utf-8"?>
<!-- Generator: Adobe Illustrator 26.0.1, SVG Export Plug-In . SVG Version: 6.00 Build 0)  -->
<svg version="1.1" id="Layer_1" xmlns="http://www.w3.org/2000/svg" xmlns:xlink="http://www.w3.org/1999/xlink" x="0px" y="0px"
	 viewBox="0 0 192 192" style="enable-background:new 0 0 192 192;" xml:space="preserve">
<style type="text/css">
	.st0{fill:#FFFFFF;}
	.st1{fill:#60BCEA;stroke:#60BCEA;stroke-width:3;stroke-miterlimit:10;}
	.st2{fill:none;stroke:#313E4F;stroke-width:3;stroke-miterlimit:10;}
	.st3{fill:#F9C478;stroke:#F9C478;stroke-width:3;stroke-miterlimit:10;}
	.st4{fill:none;stroke:#313E4F;stroke-width:3;stroke-linecap:round;stroke-linejoin:round;}
	.st5{fill:#FC8DC8;stroke:#FC8DC8;stroke-width:3;stroke-miterlimit:10;}
</style>
<g id="front_edge">
	<path class="st0" d="M24.1,73.7h143.7l0,0v92c0,2.1-1.7,3.9-3.9,3.9H27.9c-2.1,0-3.7-1.7-3.7-3.7L24.1,73.7L24.1,73.7z"/>
	<path class="st1" d="M92.7,23.2L25.1,71.4l59.8,43.3l20.8,0.3l61.5-43c0.4-0.3,0.5-0.8,0.2-1.2c-0.1-0.1-0.1-0.1-0.2-0.2
		C160,65,112.1,32.1,99.1,23.2C97.2,21.8,94.6,21.9,92.7,23.2z"/>
	<path class="st2" d="M92.9,23L23.8,71.3v93.5c0,2.9,2.3,5.2,5.2,5.2h134c2.9,0,5.2-2.3,5.2-5.2c0,0,0,0,0,0V71.3
		c0.4-0.4-55.7-38.9-69.3-48.3C97.1,21.7,94.7,21.8,92.9,23z"/>
	<polygon class="st3" points="90.7,118.9 96,114.9 101.4,119 151.4,83.6 151.4,34.4 40.6,34.4 40.6,83.5 	"/>
	<polyline class="st2" points="25.8,168.6 96,115.5 166.3,168.6 	"/>
	<line class="st2" x1="24.4" y1="72.6" x2="90.9" y2="119.7"/>
	<line class="st2" x1="167.9" y1="72.6" x2="101.3" y2="119.7"/>
	<line class="st4" x1="59.4" y1="78" x2="132.6" y2="78"/>
	<line class="st4" x1="67.1" y1="90.5" x2="124.9" y2="90.5"/>
	<rect x="56.2" y="47" class="st5" width="79.5" height="17.7"/>
</g>
</svg>
