<?xml version="1.0" encoding="utf-8"?>
<!-- Generator: Adobe Illustrator 26.0.1, SVG Export Plug-In . SVG Version: 6.00 Build 0)  -->
<svg version="1.1" id="Layer_1" xmlns="http://www.w3.org/2000/svg" xmlns:xlink="http://www.w3.org/1999/xlink" x="0px" y="0px"
	 viewBox="0 0 192 192" style="enable-background:new 0 0 192 192;" xml:space="preserve">
<style type="text/css">
	.st0{fill:#60BCEA;stroke:#60BCEA;stroke-width:3;stroke-miterlimit:10;}
	.st1{fill:#FFFFFF;stroke:#313E4F;stroke-width:3;stroke-linecap:round;stroke-miterlimit:10;}
	.st2{fill:#FC8DC8;stroke:#FC8DC8;stroke-width:3;stroke-miterlimit:10;}
	.st3{fill:none;stroke:#313E4F;stroke-width:3;stroke-linecap:round;stroke-linejoin:round;}
</style>
<g id="front_edge">
	<path class="st0" d="M26.8,22h127.7c2.5,0,4.5,2,4.5,4.5v127.8c0,2.5-2,4.5-4.5,4.5H26.8c-2.5,0-4.5-2-4.5-4.5V26.6
		C22.3,24.1,24.3,22,26.8,22z"/>
	<path class="st1" d="M37.9,33.5h127.7c2.5,0,4.5,2,4.5,4.5v127.8c0,2.5-2,4.5-4.5,4.5H37.9c-2.5,0-4.5-2-4.5-4.5V38
		C33.4,35.5,35.4,33.5,37.9,33.5z"/>
	<rect x="53.4" y="127.1" class="st2" width="15.7" height="29.5"/>
	<rect x="108" y="117.3" class="st2" width="15.7" height="39.3"/>
	<rect x="80.7" y="103.1" class="st2" width="15.7" height="53.4"/>
	<rect x="135.3" y="88.1" class="st2" width="15.7" height="68.4"/>
	<polyline class="st3" points="48.2,101.8 78.1,77.8 106.5,92 143.4,55 	"/>
	<polyline class="st3" points="127.8,54.7 143.4,54.7 143.4,70.4 	"/>
</g>
</svg>
