<?xml version="1.0" encoding="utf-8"?>
<!-- Generator: Adobe Illustrator 26.0.1, SVG Export Plug-In . SVG Version: 6.00 Build 0)  -->
<svg version="1.1" id="Layer_1" xmlns="http://www.w3.org/2000/svg" xmlns:xlink="http://www.w3.org/1999/xlink" x="0px" y="0px"
	 viewBox="0 0 192 192" style="enable-background:new 0 0 192 192;" xml:space="preserve">
<style type="text/css">
	.st0{fill:#FFFFFF;stroke:#313E4F;stroke-width:3;stroke-miterlimit:10;}
	.st1{fill:#FC8DC8;stroke:#FC8DC8;stroke-width:3;stroke-miterlimit:10;}
	.st2{fill:#60BCEA;stroke:#60BCEA;stroke-width:3;stroke-miterlimit:10;}
	.st3{fill:#313E4F;stroke:#313E4F;stroke-width:3;stroke-linecap:round;stroke-miterlimit:10;}
</style>
<g id="front_edge">
	<path class="st0" d="M37.7,127.6c-2.3-7-3.5-14.3-3.5-21.7C34.2,70.1,61.8,41,96,41s61.8,29.1,61.8,64.9c0,5.4-0.7,10.8-2,16.1
		l7,14.4c4-9.7,6-20,6-30.5c0-42.3-32.7-76.6-72.9-76.6S23,63.6,23,105.9c0,7.5,1,14.9,3.1,22.1L37.7,127.6z"/>
	<path class="st1" d="M43.8,104.9L43.8,104.9c12,0,21.8,9.8,21.8,21.8v10.8c0,12-9.8,21.8-21.8,21.8h0c-12,0-21.8-9.8-21.8-21.8
		v-10.8C22,114.7,31.8,104.9,43.8,104.9z"/>
	<path class="st2" d="M53,94.8h5.4c4,0,7.2,3.2,7.2,7.2v59c0,4-3.2,7.2-7.2,7.2H53c-4,0-7.2-3.2-7.2-7.2v-59
		C45.7,98,49,94.8,53,94.8z"/>
	<path class="st1" d="M148.2,159.2L148.2,159.2c-12,0-21.8-9.8-21.8-21.8v-10.8c0-12,9.8-21.8,21.8-21.8l0,0
		c12,0,21.8,9.8,21.8,21.8v10.8C170,149.5,160.2,159.2,148.2,159.2z"/>
	<path class="st2" d="M139,168.2h-5.4c-4,0-7.2-3.2-7.2-7.2v-59c0-4,3.2-7.2,7.2-7.2h5.4c4,0,7.2,3.2,7.2,7.2v59
		C146.3,165,143,168.2,139,168.2z"/>
	<path class="st3" d="M150,48c-13.6-15.4-33.1-24.2-53.7-24.2H96c-20.5,0-40.1,8.8-53.7,24.2c-3.4,3.9-3.2,9.9,0.6,13.5l0,0
		c3.9,3.7,10.1,3.6,13.8-0.2c0.1-0.2,0.3-0.3,0.4-0.5c18.6-21.6,51.1-24,72.7-5.4c1.9,1.7,3.7,3.4,5.4,5.4c3.5,4.1,9.7,4.6,13.8,1.1
		c0.2-0.1,0.3-0.3,0.5-0.4l0,0C153.2,57.9,153.4,51.9,150,48z"/>
</g>
</svg>
