<?xml version="1.0" encoding="utf-8"?>
<!-- Generator: Adobe Illustrator 26.0.1, SVG Export Plug-In . SVG Version: 6.00 Build 0)  -->
<svg version="1.1" id="Layer_1" xmlns="http://www.w3.org/2000/svg" xmlns:xlink="http://www.w3.org/1999/xlink" x="0px" y="0px"
	 viewBox="0 0 192 192" style="enable-background:new 0 0 192 192;" xml:space="preserve">
<style type="text/css">
	.st0{fill:#60BCEA;stroke:#60BCEA;stroke-width:3;stroke-miterlimit:10;}
	.st1{fill:#FFFFFF;stroke:#313E4F;stroke-width:3;stroke-linecap:round;stroke-linejoin:round;}
	.st2{fill:#FC8DC8;stroke:#313E4F;stroke-width:3;stroke-miterlimit:10;}
	.st3{fill:none;stroke:#313E4F;stroke-width:3;stroke-linecap:round;stroke-linejoin:round;}
</style>
<g id="front_edge">
	<circle class="st0" cx="96" cy="94.6" r="49.2"/>
	<path class="st1" d="M136.1,96.1c0.1,10.8-4.7,21.2-13.1,28c-6.7,5.5-10.6,13.7-10.6,22.3H79.6c-0.1-8.6-4-16.8-10.6-22.3
		c-8.4-6.8-13.3-17.2-13.1-28C55.9,73.9,73.8,56,96,56C118.1,56,136.1,73.9,136.1,96.1L136.1,96.1z"/>
	<path class="st2" d="M77.1,141.9h37.8c2.8,0,5.2,2.3,5.2,5.1v0c0,2.8-2.3,5.1-5.2,5.1H77.1c-2.8,0-5.2-2.3-5.2-5.1v0
		C71.9,144.2,74.2,141.9,77.1,141.9z"/>
	<path class="st1" d="M78.1,160.4h35.8l0,0v7.8c0,3-2.4,5.4-5.4,5.4h-25c-3,0-5.4-2.4-5.4-5.4L78.1,160.4L78.1,160.4L78.1,160.4z"/>
	<path class="st2" d="M80.6,152.2h30.9c2.8,0,5.2,2.3,5.2,5.1v0c0,2.8-2.3,5.1-5.2,5.1H80.6c-2.8,0-5.2-2.3-5.2-5.1v0
		C75.4,154.6,77.7,152.2,80.6,152.2z"/>
	<line class="st3" x1="170.6" y1="93" x2="153.9" y2="93"/>
	<line class="st3" x1="96" y1="35.2" x2="96" y2="18.4"/>
	<line class="st3" x1="21.4" y1="93.1" x2="38.1" y2="93.1"/>
	<line class="st3" x1="148.8" y1="145.8" x2="136.9" y2="134"/>
	<line class="st3" x1="136.9" y1="52.1" x2="148.8" y2="40.3"/>
	<line class="st3" x1="43.2" y1="40.3" x2="55.1" y2="52.1"/>
	<line class="st3" x1="55.1" y1="134" x2="43.2" y2="145.8"/>
</g>
</svg>
