<?xml version="1.0" encoding="utf-8"?>
<!-- Generator: Adobe Illustrator 26.0.1, SVG Export Plug-In . SVG Version: 6.00 Build 0)  -->
<svg version="1.1" id="Layer_1" xmlns="http://www.w3.org/2000/svg" xmlns:xlink="http://www.w3.org/1999/xlink" x="0px" y="0px"
	 viewBox="0 0 192 192" style="enable-background:new 0 0 192 192;" xml:space="preserve">
<style type="text/css">
	.st0{fill:#FC8DC8;stroke:#FC8DC8;stroke-width:3;stroke-miterlimit:10;}
	.st1{fill:none;stroke:#313E4F;stroke-width:3;stroke-linecap:round;stroke-linejoin:round;}
	.st2{fill:#F9C478;stroke:#F9C478;stroke-width:3;stroke-miterlimit:10;}
	.st3{fill:#FFFFFF;stroke:#313E4F;stroke-width:3;stroke-miterlimit:10;}
	.st4{fill:#FFFFFF;stroke:#313E4F;stroke-width:3;stroke-linecap:round;stroke-linejoin:round;}
	.st5{fill:#60BCEA;stroke:#60BCEA;stroke-width:3;stroke-miterlimit:10;}
	.st6{fill:none;stroke:#313E4F;stroke-width:3;stroke-miterlimit:10;}
</style>
<g id="front_edge">
	<g id="Payroll">
		<circle class="st0" cx="142.2" cy="64.5" r="31.9"/>
		<path class="st1" d="M150.2,58v-0.2c0-1.9-0.8-3.7-2.2-5c-1.6-1.3-3.6-2-5.6-2c-2-0.1-3.9,0.5-5.5,1.6c-1.5,1-2.4,2.8-2.4,4.6
			c-0.1,1.7,0.7,3.4,2.1,4.5c1.6,1.1,3.5,1.9,5.4,2.3h0.1c1.9,0.4,3.8,1.2,5.4,2.4c1.5,1.1,2.3,2.8,2.2,4.6c0.1,1.9-0.9,3.7-2.5,4.8
			c-1.6,1.1-3.6,1.7-5.6,1.6c-2.1,0-4.1-0.5-5.9-1.6c-1.8-1.2-2.8-3.2-2.7-5.4V70"/>
		<line class="st1" x1="142.2" y1="46.6" x2="142.2" y2="50.6"/>
		<line class="st1" x1="142.2" y1="77.3" x2="142.2" y2="81.2"/>
	</g>
	<path class="st2" d="M91.7,40.6c-20.5,0-37.1,16.6-37.1,37.1c0,7.6,2.3,15,6.7,21.2c7.4,0.2,15.4,1.3,19.5,4.3
		c9.1,6.6,6.6,8.3,20.3,8.3h6.1C125.8,103,134,81,125.5,62.3C119.5,49.1,106.3,40.6,91.7,40.6z M91.5,76.8L91.5,76.8"/>
	<path class="st1" d="M101.1,70.1v-0.2c0.1-2.3-0.9-4.4-2.6-5.9c-1.8-1.5-4.2-2.4-6.5-2.3c-2.3-0.1-4.5,0.6-6.4,1.8
		c-1.8,1.2-2.9,3.3-2.8,5.4c-0.1,2,0.8,4,2.4,5.2c1.9,1.3,4,2.2,6.3,2.7h0.2c2.3,0.5,4.4,1.4,6.3,2.7c3,2.4,3.4,6.7,1.1,9.6
		c-0.4,0.5-0.9,0.9-1.4,1.3c-1.9,1.3-4.2,1.9-6.5,1.9c-2.4,0.1-4.8-0.6-6.8-1.9c-2.1-1.4-3.3-3.8-3.1-6.3V84"/>
	<line class="st1" x1="91.8" y1="56.9" x2="91.8" y2="61.4"/>
	<line class="st1" x1="91.8" y1="92.5" x2="91.8" y2="97.1"/>
	<path class="st3" d="M43.9,99.5c0,0,27.7-2.9,36.9,3.7s6.6,8.3,20.3,8.3h7.4c3.4,0,6.2,2.8,6.2,6.2l0,0c0,3.4-2.8,6.2-6.2,6.2H74.1
		"/>
	<path class="st4" d="M110.3,123.6c0,0,14.3-2.8,38-9.8c2.2-0.6,4.5,0.1,6,1.8l0,0c2.1,2.4,1.8,6-0.6,8.1c-0.4,0.4-0.9,0.7-1.4,0.9
		c-12.8,5.7-39,17.4-43,19.2c-5.4,2.5-12.4,7.9-31.5,1.2s-34.5-10.9-34.5-10.9l0.6-34.6c0,0,27.7-2.9,36.9,3.7s6.6,8.3,20.3,8.3h7.4
		c3.4,0,6.2,2.8,6.2,6.2l0,0c0,3.4-2.8,6.2-6.2,6.2H74.1"/>
	<polyline class="st5" points="16.5,94.5 44.7,94.5 44.7,142.1 16.5,142.1 	"/>
	<circle class="st6" cx="31" cy="128.5" r="4.7"/>
</g>
</svg>
