<?xml version="1.0" encoding="utf-8"?>
<!-- Generator: Adobe Illustrator 26.0.1, SVG Export Plug-In . SVG Version: 6.00 Build 0)  -->
<svg version="1.1" id="Layer_1" xmlns="http://www.w3.org/2000/svg" xmlns:xlink="http://www.w3.org/1999/xlink" x="0px" y="0px"
	 viewBox="0 0 192 192" style="enable-background:new 0 0 192 192;" xml:space="preserve">
<style type="text/css">
	.st0{fill:#EEC277;stroke:#EEC277;stroke-width:3;stroke-miterlimit:10;}
	.st1{fill:#F9C478;stroke:#F9C478;stroke-width:3;stroke-miterlimit:10;}
	.st2{fill:#FC8DC8;stroke:#FC8DC8;stroke-width:3;stroke-miterlimit:10;}
	.st3{fill:#FFFFFF;stroke:#313E4F;stroke-width:3;stroke-miterlimit:10;}
	.st4{fill:#60BCEA;stroke:#60BCEA;stroke-width:3;stroke-miterlimit:10;}
</style>
<g id="front_edge">
	<g id="Caller_ID">
		<path class="st0" d="M104.4,80.5L104.4,80.5z"/>
		<path class="st1" d="M61.2,71.2L46.9,56.4c-3-3.1-8-3.2-11.1-0.2c-0.1,0.1-0.2,0.2-0.3,0.3l-9.3,10c-4.3,4.5-6.1,10.9-4.8,17
			c2.6,11.9,10.1,32.1,31.3,51c13.7,12.3,26.2,18.6,35.5,22c9.2,3.3,19.5,1,26.5-5.8l6.3-6.1c3.2-2.9,3.5-7.9,0.6-11.2
			c-0.1-0.1-0.2-0.2-0.3-0.3l-14.4-14.3c-3-2.9-7.7-3.1-10.8-0.3l-10,8.8c0,0-19-3.5-34.3-36.2l9.2-8.8
			C64.1,79.4,64.2,74.4,61.2,71.2C61.2,71.2,61.2,71.2,61.2,71.2z"/>
	</g>
	<path class="st2" d="M94.1,41.3h72.8c1.7,0,3.1,1.3,3.1,3c0,0,0,0,0,0l-0.1,63.8l-13.8-9.7c-0.5-0.4-1.1-0.6-1.8-0.6H94.1
		c-1.7,0-3.1-1.3-3.1-3c0,0,0,0,0,0V44.4C91,42.7,92.4,41.3,94.1,41.3C94.1,41.3,94.1,41.3,94.1,41.3z"/>
	<path class="st3" d="M146.3,29.6H73.5c-1.7,0-3.1,1.4-3.1,3.1l0.1,63.8l13.8-9.7c0.5-0.4,1.1-0.6,1.8-0.6h60.2
		c1.7,0,3.1-1.4,3.1-3.1V32.7C149.4,31,148,29.6,146.3,29.6z"/>
	<circle class="st4" cx="91.5" cy="57.8" r="4.6"/>
	<circle class="st4" cx="109.9" cy="57.8" r="4.6"/>
	<circle class="st4" cx="128.3" cy="57.8" r="4.6"/>
</g>
</svg>
