<?xml version="1.0" encoding="utf-8"?>
<!-- Generator: Adobe Illustrator 26.0.1, SVG Export Plug-In . SVG Version: 6.00 Build 0)  -->
<svg version="1.1" id="Layer_1" xmlns="http://www.w3.org/2000/svg" xmlns:xlink="http://www.w3.org/1999/xlink" x="0px" y="0px"
	 viewBox="0 0 192 192" style="enable-background:new 0 0 192 192;" xml:space="preserve">
<style type="text/css">
	.st0{fill:#FC8DC8;stroke:#FC8DC8;stroke-width:3;stroke-miterlimit:10;}
	.st1{fill:#FFFFFF;stroke:#313E4F;stroke-width:3;stroke-linecap:round;stroke-linejoin:round;}
	.st2{fill:none;stroke:#313E4F;stroke-width:3;stroke-linecap:round;stroke-linejoin:round;}
	.st3{fill:#FFFFFF;stroke:#313E4F;stroke-width:3;stroke-miterlimit:10;}
	.st4{fill:#F9C478;stroke:#F9C478;stroke-width:3;stroke-miterlimit:10;}
	.st5{fill:none;stroke:#313E4F;stroke-width:3;stroke-miterlimit:10;}
</style>
<g id="front_edge">
	<path class="st0" d="M30,21.6h99.2c2.6,0,4.7,2.1,4.7,4.7v119.7c0,2.6-2.1,4.7-4.7,4.7H30c-2.6,0-4.7-2.1-4.7-4.7V26.3
		C25.3,23.7,27.4,21.6,30,21.6z"/>
	<path class="st1" d="M35.7,26.9h99.2c2.6,0,4.7,2.1,4.7,4.7v119.7c0,2.6-2.1,4.7-4.7,4.7H35.7c-2.6,0-4.7-2.1-4.7-4.7V31.7
		C31,29.1,33.1,26.9,35.7,26.9z"/>
	<line class="st2" x1="45.4" y1="50" x2="125.2" y2="50"/>
	<line class="st2" x1="45.4" y1="62.8" x2="125.2" y2="62.8"/>
	<line class="st2" x1="45.4" y1="75.6" x2="125.2" y2="75.6"/>
	<line class="st2" x1="45.4" y1="88.3" x2="125.2" y2="88.3"/>
	<line class="st2" x1="45.4" y1="101.1" x2="125.2" y2="101.1"/>
	<line class="st2" x1="45.4" y1="113.9" x2="125.2" y2="113.9"/>
	<line class="st2" x1="45.4" y1="126.7" x2="75.8" y2="126.7"/>
	<path class="st3" d="M132.2,124.1c1.9-1.3,3.7-2.7,5.3-4.3l5.3,6.5l-5.3,4.3L132.2,124.1z"/>
	<path class="st3" d="M132.2,124.1l5.3,6.5l5.3-4.3l-5.3-6.5C135.9,121.4,134.1,122.8,132.2,124.1z"/>
	<polygon class="st3" points="144.2,123.1 171.2,153.4 157.9,164.2 133.5,131.9 	"/>
	<path class="st4" d="M108.2,128.9c-19.4-1.9-33.6-19.1-31.7-38.5C78.4,71,95.6,56.8,115,58.7c19.4,1.9,33.6,19.1,31.7,38.5
		c-1.9,19.4-19,33.5-38.4,31.7C108.3,128.9,108.2,128.9,108.2,128.9z"/>
	<path class="st3" d="M109.2,118.9c-13.9-1.4-24-13.7-22.6-27.5c1.4-13.9,13.7-24,27.5-22.6c13.9,1.4,24,13.7,22.6,27.5c0,0,0,0,0,0
		C135.3,110.1,123,120.2,109.2,118.9z"/>
	<circle class="st5" cx="111.9" cy="89.3" r="8.7"/>
	<path class="st2" d="M98,113.1c2.1-7.7,10.1-12.2,17.8-10c4.9,1.4,8.7,5.2,10.1,10.1"/>
</g>
</svg>
