<?xml version="1.0" encoding="utf-8"?>
<!-- Generator: Adobe Illustrator 26.0.1, SVG Export Plug-In . SVG Version: 6.00 Build 0)  -->
<svg version="1.1" id="Layer_1" xmlns="http://www.w3.org/2000/svg" xmlns:xlink="http://www.w3.org/1999/xlink" x="0px" y="0px"
	 viewBox="0 0 192 192" style="enable-background:new 0 0 192 192;" xml:space="preserve">
<style type="text/css">
	.st0{fill:#FFFFFF;stroke:#313E4F;stroke-width:3;stroke-miterlimit:10;}
	.st1{fill:none;stroke:#313E4F;stroke-width:3;stroke-linecap:round;stroke-linejoin:round;}
	.st2{fill:#313E4F;stroke:#313E4F;stroke-width:3;stroke-linecap:round;stroke-miterlimit:10;}
	.st3{fill:#FC8DC8;stroke:#FC8DC8;stroke-width:3;stroke-miterlimit:10;}
	.st4{fill:#F9C478;stroke:#F9C478;stroke-width:3;stroke-miterlimit:10;}
</style>
<g id="front_edge">
	<path class="st0" d="M21.7,47.6h147.9l0,0v94.6c0,2.8-2.2,5-5,5h-138c-2.8,0-5-2.2-5-5L21.7,47.6L21.7,47.6L21.7,47.6z"/>
	<line class="st1" x1="38.4" y1="73.5" x2="153.6" y2="73.5"/>
	<path class="st2" d="M26.8,32.9l138-0.6c2.8,0,5,2.2,5,5l0,9.5l0,0l-148,0.6l0,0l0-9.5C21.8,35.2,24,32.9,26.8,32.9z"/>
	<line class="st1" x1="38.4" y1="85.5" x2="153.6" y2="85.5"/>
	<path class="st3" d="M43.3,106.6l72.3-0.3c2.8,0,5,2.2,5,5l0.1,12.9c0,2.8-2.2,5-5,5l-72.3,0.3c-2.8,0-5-2.2-5-5l-0.1-12.9
		C38.3,108.9,40.6,106.7,43.3,106.6z"/>
	<path class="st0" d="M129.2,127.6c2-1.4,3.9-2.9,5.6-4.6l5.6,6.8l-5.6,4.6L129.2,127.6z"/>
	<path class="st0" d="M129.2,127.6l5.6,6.8l5.6-4.6l-5.6-6.8C133.1,124.7,131.2,126.2,129.2,127.6z"/>
	<polygon class="st0" points="142,126.5 170.5,158.6 156.4,170 130.7,135.8 	"/>
	<path class="st4" d="M103.9,132.6c-20.5-2-35.5-20.2-33.5-40.8s20.2-35.5,40.8-33.5c20.5,2,35.5,20.2,33.5,40.8
		C142.7,119.6,124.5,134.6,103.9,132.6C103.9,132.6,103.9,132.6,103.9,132.6z"/>
	<path class="st0" d="M104.9,122c-14.7-1.4-25.4-14.5-24-29.1c1.4-14.7,14.5-25.4,29.1-24c14.7,1.4,25.4,14.5,24,29.1
		C132.6,112.7,119.6,123.4,104.9,122z"/>
	<line class="st1" x1="94.4" y1="85.5" x2="131.2" y2="85.5"/>
	<line class="st1" x1="81.4" y1="97.5" x2="121.8" y2="97.5"/>
</g>
</svg>
