<?xml version="1.0" encoding="utf-8"?>
<!-- Generator: Adobe Illustrator 26.0.1, SVG Export Plug-In . SVG Version: 6.00 Build 0)  -->
<svg version="1.1" id="Layer_1" xmlns="http://www.w3.org/2000/svg" xmlns:xlink="http://www.w3.org/1999/xlink" x="0px" y="0px"
	 viewBox="0 0 192 192" style="enable-background:new 0 0 192 192;" xml:space="preserve">
<style type="text/css">
	.st0{fill:#FFFFFF;stroke:#313E4F;stroke-width:3;stroke-miterlimit:10;}
	.st1{fill:none;stroke:#313E4F;stroke-width:3;stroke-linecap:round;stroke-linejoin:round;}
	.st2{fill:#313E4F;stroke:#313E4F;stroke-width:3;stroke-linecap:round;stroke-miterlimit:10;}
	.st3{fill:#FC8DC8;stroke:#FC8DC8;stroke-width:3;stroke-miterlimit:10;}
</style>
<g id="front_edge">
	<path class="st0" d="M21.6,47.2h141.2l0,0v90.2c0,2.6-2.1,4.8-4.8,4.8c0,0,0,0,0,0H26.4c-2.6,0-4.8-2.1-4.8-4.7c0,0,0,0,0,0V47.2
		L21.6,47.2z"/>
	<line class="st1" x1="94.1" y1="71.9" x2="147.5" y2="71.9"/>
	<path class="st2" d="M26.5,33.2l131.6-0.6c2.6,0,4.8,2.1,4.8,4.7v0l0,9.1l0,0L21.8,47.1l0,0l0-9.1C21.8,35.4,23.9,33.2,26.5,33.2
		C26.5,33.2,26.5,33.2,26.5,33.2z"/>
	<line class="st1" x1="94.1" y1="83.3" x2="129.5" y2="83.3"/>
	<path class="st3" d="M42.3,66.1l34.1-0.1c2.6,0,4.8,2.1,4.8,4.7L81.3,83c0,2.6-2.1,4.8-4.7,4.8L42.4,88c-2.6,0-4.8-2.1-4.8-4.7
		l-0.1-12.3C37.5,68.2,39.7,66.1,42.3,66.1z"/>
	<line class="st1" x1="94.1" y1="106.2" x2="147.5" y2="106.2"/>
	<line class="st1" x1="94.1" y1="117.7" x2="129.5" y2="117.7"/>
	<path class="st3" d="M42.3,100.5l34.1-0.1c2.6,0,4.8,2.1,4.8,4.7l0.1,12.3c0,2.6-2.1,4.8-4.7,4.8l-34.1,0.1c-2.6,0-4.8-2.1-4.8-4.7
		l-0.1-12.3C37.5,102.6,39.7,100.5,42.3,100.5z"/>
	<path class="st0" d="M168.6,155.5l-43.5,0.2c-1.3,0-2.3-1-2.3-2.3l-0.3-67.2l48.1-0.2l0.3,67.2C171,154.5,169.9,155.5,168.6,155.5
		C168.6,155.5,168.6,155.5,168.6,155.5z"/>
	<path class="st2" d="M168.8,80.2l-44.5,0.2c-1,0-1.8,0.8-1.8,1.8c0,0,0,0,0,0v7l48.1-0.2v-7C170.6,81,169.8,80.2,168.8,80.2z"/>
	<path class="st3" d="M134.6,98.5l24.1-0.1c2.3,0,4.1,1.8,4.1,4.1l0.1,13.7c0,2.3-1.8,4.1-4.1,4.1l-24.1,0.1c-2.3,0-4.1-1.8-4.1-4.1
		l-0.1-13.7C130.6,100.4,132.4,98.5,134.6,98.5z"/>
	<line class="st1" x1="130.5" y1="129.8" x2="163.1" y2="129.8"/>
	<line class="st1" x1="133.3" y1="138.4" x2="160.2" y2="138.4"/>
</g>
</svg>
