<?xml version="1.0" encoding="utf-8"?>
<!-- Generator: Adobe Illustrator 26.0.1, SVG Export Plug-In . SVG Version: 6.00 Build 0)  -->
<svg version="1.1" id="Layer_1" xmlns="http://www.w3.org/2000/svg" xmlns:xlink="http://www.w3.org/1999/xlink" x="0px" y="0px"
	 viewBox="0 0 192 192" style="enable-background:new 0 0 192 192;" xml:space="preserve">
<style type="text/css">
	.st0{fill:#FC8DC8;stroke:#FC8DC8;stroke-width:3;stroke-miterlimit:10;}
	.st1{fill:#60BCEA;stroke:#60BCEA;stroke-width:3;stroke-miterlimit:10;}
	.st2{fill:#FFFFFF;stroke:#313E4F;stroke-width:3;stroke-miterlimit:10;}
	.st3{fill:#F9C478;stroke:#F9C478;stroke-width:3;stroke-miterlimit:10;}
</style>
<g id="front_edge">
	<path class="st0" d="M98.3,22.4l9,9.9c0.8,0.9,2.1,1.2,3.3,0.9l12.8-4.1c1.6-0.5,3.4,0.4,3.9,2c0,0.1,0.1,0.2,0.1,0.3l2.9,13.1
		c0.3,1.2,1.2,2.1,2.4,2.4l13.1,2.9c1.7,0.4,2.8,2,2.4,3.7c0,0.1,0,0.2-0.1,0.3l-4,12.8c-0.4,1.2,0,2.4,0.9,3.3l9.9,9
		c1.3,1.2,1.4,3.1,0.2,4.4c-0.1,0.1-0.1,0.1-0.2,0.2l-9.9,9c-0.9,0.8-1.3,2.1-0.9,3.3l4,12.8c0.5,1.6-0.4,3.4-2,3.9
		c-0.1,0-0.2,0.1-0.3,0.1l-13.1,2.9c-1.2,0.3-2.1,1.2-2.4,2.4l-2.9,13.1c-0.4,1.7-2,2.8-3.7,2.4c-0.1,0-0.2,0-0.3-0.1l-12.8-4.1
		c-1.2-0.4-2.4,0-3.3,0.9l-9,9.9c-1.2,1.3-3.1,1.4-4.4,0.2c-0.1-0.1-0.1-0.1-0.2-0.2l-9-9.9c-0.8-0.9-2.1-1.2-3.3-0.9l-12.8,4.1
		c-1.6,0.5-3.4-0.4-3.9-2c0-0.1-0.1-0.2-0.1-0.3l-2.9-13.1c-0.3-1.2-1.2-2.1-2.4-2.4l-13.1-2.9c-1.7-0.4-2.8-2-2.4-3.7
		c0-0.1,0-0.2,0.1-0.3l4-12.8c0.4-1.2,0-2.4-0.9-3.3l-9.9-9c-1.3-1.2-1.4-3.1-0.2-4.4c0.1-0.1,0.1-0.1,0.2-0.2l9.9-9
		c0.9-0.8,1.3-2.1,0.9-3.3l-4-12.8c-0.5-1.6,0.4-3.4,2-3.9c0.1,0,0.2-0.1,0.3-0.1l13.1-2.9c1.2-0.3,2.1-1.2,2.4-2.4l2.9-13.1
		c0.4-1.7,2-2.8,3.7-2.4c0.1,0,0.2,0,0.3,0.1l12.7,4.1c1.2,0.4,2.4,0,3.3-0.9l9-9.9c1.2-1.3,3.1-1.4,4.4-0.2
		C98.2,22.3,98.2,22.3,98.3,22.4z"/>
	<path class="st1" d="M119,170.4l-22.8-19.2L73,170.4c-0.3,0.2-0.6,0.2-0.8-0.1c-0.1-0.1-0.1-0.2-0.1-0.3V67.8h47.8V170
		c0,0.3-0.3,0.6-0.6,0.5C119.2,170.5,119.1,170.5,119,170.4z"/>
	<path class="st2" d="M98.1,28.4l8.1,8.9c0.7,0.8,1.9,1.1,2.9,0.8l11.5-3.7c1.5-0.5,3.1,0.3,3.5,1.8c0,0.1,0,0.2,0.1,0.2l2.6,11.8
		c0.2,1.1,1.1,1.9,2.1,2.2l11.8,2.6c1.5,0.3,2.5,1.8,2.2,3.4c0,0.1,0,0.2-0.1,0.2l-3.7,11.5c-0.3,1.1,0,2.2,0.8,2.9l8.9,8.1
		c1.2,1.1,1.2,2.8,0.2,4c-0.1,0.1-0.1,0.1-0.2,0.2l-8.9,8.1c-0.8,0.7-1.1,1.9-0.8,2.9l3.7,11.5c0.5,1.5-0.4,3.1-1.8,3.5
		c-0.1,0-0.2,0-0.2,0.1l-11.8,2.6c-1.1,0.2-1.9,1.1-2.2,2.2l-2.6,11.8c-0.3,1.5-1.8,2.5-3.4,2.1c-0.1,0-0.2,0-0.2-0.1l-11.5-3.7
		c-1-0.3-2.2,0-2.9,0.8l-8.1,8.9c-1,1.1-2.8,1.2-4,0.2c-0.1-0.1-0.1-0.1-0.2-0.2l-8.1-8.9c-0.7-0.8-1.9-1.1-2.9-0.8l-11.5,3.7
		c-1.5,0.5-3.1-0.3-3.5-1.8c0-0.1,0-0.2-0.1-0.2l-2.6-11.8c-0.2-1.1-1.1-1.9-2.1-2.2l-11.8-2.6c-1.5-0.3-2.5-1.8-2.2-3.4
		c0-0.1,0-0.2,0.1-0.2l3.7-11.5c0.3-1.1,0-2.2-0.8-2.9l-8.9-8.1c-1.2-1.1-1.2-2.8-0.2-4c0.1-0.1,0.1-0.1,0.2-0.2l8.9-8.1
		c0.8-0.7,1.1-1.9,0.8-2.9l-3.7-11.5c-0.5-1.5,0.4-3.1,1.8-3.6c0.1,0,0.2,0,0.2-0.1L63,50.4c1.1-0.2,1.9-1.1,2.2-2.2l2.6-11.8
		c0.3-1.5,1.8-2.5,3.4-2.1c0.1,0,0.2,0,0.2,0.1l11.5,3.7c1,0.3,2.2,0,2.9-0.8l8.1-8.9c1-1.1,2.8-1.2,4-0.2
		C98,28.2,98,28.3,98.1,28.4z"/>
	<circle class="st2" cx="96" cy="81.3" r="34.9"/>
	<path class="st3" d="M97.3,60.6l5.2,10.6c0.2,0.4,0.6,0.7,1.1,0.8l11.8,1.7c0.8,0.1,1.3,0.8,1.2,1.6c0,0.3-0.2,0.6-0.4,0.8
		l-8.5,8.3c-0.3,0.3-0.5,0.8-0.4,1.3l2,11.7c0.1,0.8-0.4,1.5-1.2,1.6c-0.3,0-0.6,0-0.9-0.1l-10.5-5.5c-0.4-0.2-0.9-0.2-1.3,0
		l-10.5,5.5c-0.7,0.4-1.6,0.1-1.9-0.6c-0.1-0.3-0.2-0.6-0.1-0.9l2-11.7c0.1-0.5-0.1-0.9-0.4-1.3l-8.5-8.3c-0.6-0.5-0.6-1.4,0-2
		c0.2-0.2,0.5-0.4,0.8-0.4L88.4,72c0.5-0.1,0.9-0.4,1.1-0.8l5.2-10.6c0.4-0.7,1.2-1,1.9-0.6C96.9,60.1,97.1,60.3,97.3,60.6z"/>
</g>
</svg>
