<?xml version="1.0" encoding="utf-8"?>
<!-- Generator: Adobe Illustrator 26.0.1, SVG Export Plug-In . SVG Version: 6.00 Build 0)  -->
<svg version="1.1" id="Layer_1" xmlns="http://www.w3.org/2000/svg" xmlns:xlink="http://www.w3.org/1999/xlink" x="0px" y="0px"
	 viewBox="0 0 192 192" style="enable-background:new 0 0 192 192;" xml:space="preserve">
<style type="text/css">
	.st0{fill:#FC8DC8;stroke:#FC8DC8;stroke-width:3;stroke-miterlimit:10;}
	.st1{fill:#FFC9B3;stroke:#FFC9B3;stroke-linecap:round;stroke-linejoin:round;}
	.st2{fill:#FFFFFF;stroke:#313E4F;stroke-width:3;stroke-miterlimit:10;}
	.st3{fill:none;stroke:#313E4F;stroke-width:3;stroke-linecap:round;stroke-linejoin:round;}
	.st4{fill:#F9C478;stroke:#F9C478;stroke-width:3;stroke-miterlimit:10;}
	.st5{fill:none;stroke:#313E4F;stroke-width:3;stroke-miterlimit:10;}
</style>
<g id="front_edge">
	<path class="st0" d="M29.7,46.5h46.5c10.9,0,19.7,8.8,19.7,19.7c0,0,0,0,0,0v82.1l0,0H30.2c-4.6,0-8.4-3.8-8.4-8.4V54.3
		C21.8,50,25.3,46.5,29.7,46.5C29.7,46.5,29.7,46.5,29.7,46.5z"/>
	<path class="st0" d="M115.6,46.5h46.4c4.4,0,7.9,3.5,7.9,7.8c0,0,0,0,0,0.1v85.5c0,4.6-3.8,8.4-8.4,8.4H95.9l0,0V66.1
		C95.9,55.3,104.7,46.5,115.6,46.5C115.6,46.5,115.6,46.5,115.6,46.5z"/>
	<polyline class="st1" points="60.3,37.8 60.3,80.4 50.1,68.1 40.1,80.4 40.1,37.8 	"/>
	<path class="st2" d="M29.7,38h46.5c10.9,0,19.7,8.8,19.7,19.7c0,0,0,0,0,0v82.1l0,0H30.2c-4.6,0-8.4-3.8-8.4-8.4V45.9
		C21.8,41.6,25.3,38,29.7,38C29.7,38,29.7,38,29.7,38z"/>
	<path class="st2" d="M115.6,38h46.4c4.4,0,7.9,3.5,7.9,7.8c0,0,0,0.1,0,0.1v85.5c0,4.6-3.8,8.4-8.4,8.4H95.9l0,0V57.7
		C95.9,46.8,104.7,38,115.6,38C115.6,38,115.6,38,115.6,38z"/>
	<path class="st2" d="M22.4,122.7h54c9.8,0,18,7.2,19.3,17"/>
	<path class="st2" d="M96.1,139.6c1.3-9.7,9.6-16.9,19.3-16.9h54.1"/>
	<line class="st3" x1="114.3" y1="65.5" x2="156.4" y2="65.5"/>
	<line class="st3" x1="114.3" y1="78.3" x2="156.4" y2="78.3"/>
	<line class="st3" x1="114.3" y1="91.2" x2="156.4" y2="91.2"/>
	<polyline class="st4" points="60.3,37.8 60.3,80.4 50.1,68.1 40.1,80.4 40.1,37.8 	"/>
	<line class="st5" x1="29.6" y1="38" x2="76.3" y2="38"/>
</g>
</svg>
