<?xml version="1.0" encoding="utf-8"?>
<!-- Generator: Adobe Illustrator 26.0.1, SVG Export Plug-In . SVG Version: 6.00 Build 0)  -->
<svg version="1.1" id="Layer_1" xmlns="http://www.w3.org/2000/svg" xmlns:xlink="http://www.w3.org/1999/xlink" x="0px" y="0px"
	 viewBox="0 0 192 192" style="enable-background:new 0 0 192 192;" xml:space="preserve">
<style type="text/css">
	.st0{fill:#FFFFFF;stroke:#313E4F;stroke-width:3;stroke-linecap:round;stroke-miterlimit:10;}
	.st1{fill:#60BCEA;stroke:#60BCEA;stroke-width:3;stroke-miterlimit:10;}
	.st2{fill:#F9C478;stroke:#F9C478;stroke-width:3;stroke-miterlimit:10;}
</style>
<g id="front_edge">
	<path class="st0" d="M33.9,32.4h124.3c3,0,5.4,2.4,5.4,5.4v126.8c0,3-2.4,5.4-5.4,5.4H33.9c-3,0-5.4-2.4-5.4-5.4V37.8
		C28.5,34.9,30.9,32.4,33.9,32.4z"/>
	<path class="st0" d="M33.8,32.4h124.3c3,0,5.4,2.4,5.4,5.4v16.3l0,0H28.5l0,0V37.8C28.5,34.9,30.9,32.4,33.8,32.4z"/>
	<rect x="43" y="67" class="st1" width="105.9" height="14"/>
	<rect x="45.6" y="21.9" class="st0" width="10" height="21.7"/>
	<rect x="136.1" y="21.9" class="st0" width="9.9" height="21.7"/>
	<rect x="90.8" y="21.9" class="st0" width="9.9" height="21.7"/>
	<rect x="42.7" y="91.1" class="st2" width="28.3" height="26.7"/>
	<rect x="42.7" y="127.1" class="st2" width="28.3" height="26.7"/>
	<rect x="81.7" y="91.1" class="st2" width="28.3" height="26.7"/>
	<rect x="81.7" y="127.1" class="st2" width="28.3" height="26.7"/>
	<rect x="120.7" y="91.1" class="st2" width="28.3" height="26.7"/>
	<rect x="120.7" y="127.1" class="st2" width="28.3" height="26.7"/>
</g>
</svg>
