<?xml version="1.0" encoding="utf-8"?>
<!-- Generator: Adobe Illustrator 26.0.1, SVG Export Plug-In . SVG Version: 6.00 Build 0)  -->
<svg version="1.1" id="Layer_1" xmlns="http://www.w3.org/2000/svg" xmlns:xlink="http://www.w3.org/1999/xlink" x="0px" y="0px"
	 viewBox="0 0 192 192" style="enable-background:new 0 0 192 192;" xml:space="preserve">
<style type="text/css">
	.st0{fill:#60BCEA;stroke:#60BCEA;stroke-width:3;stroke-miterlimit:10;}
	.st1{fill:#FC8DC8;stroke:#FC8DC8;stroke-width:3;stroke-miterlimit:10;}
	.st2{fill:none;stroke:#FFFFFF;stroke-width:3;stroke-linecap:round;stroke-linejoin:round;}
	.st3{fill:#F9C478;stroke:#F9C478;stroke-width:3;stroke-miterlimit:10;}
</style>
<g id="front_edge">
	<path class="st0" d="M108.2,132.6c-9,2-17.8-3.2-17.8-3.2c-6.1-3.6-13.3-9.3-13.8-9.8c-3.8-3.5-7.8-9.3-8.7-10.3
		C57.1,95.8,52.7,81.5,57.1,74.7c-5.4,6.8-25.8,35.1-35.5,86.7c-0.3,1.8,0.8,3.5,2.6,3.9c0.3,0.1,0.6,0.1,0.9,0
		C34.9,164.5,61.7,159.6,108.2,132.6"/>
	<path class="st1" d="M54.4,129.4c-8.5-9.2-13.6-19.2-14.2-26.5c-1.7,3.5-3.4,7.4-5.1,11.6l-0.1,0.2c-0.4,1-0.8,1.9-1.2,2.9
		c0,0.2-0.1,0.3-0.2,0.4c-0.4,0.9-0.7,1.9-1.1,2.8l-0.2,0.7c-0.3,0.9-0.7,1.8-1,2.8c-0.1,0.3-0.2,0.6-0.3,0.9
		c-0.3,0.9-0.6,1.8-0.9,2.7c-0.1,0.4-0.2,0.8-0.4,1.1c-0.3,0.9-0.5,1.7-0.8,2.6l-0.4,1.4c-0.2,0.8-0.5,1.6-0.8,2.5
		c-0.2,0.5-0.3,1-0.5,1.6c-0.2,0.8-0.5,1.6-0.7,2.4c-0.2,0.6-0.3,1.2-0.5,1.8s-0.4,1.5-0.6,2.3s-0.4,1.4-0.5,2.1s-0.4,1.4-0.5,2.2
		s-0.4,1.6-0.5,2.4l-0.5,2c-0.2,1-0.4,1.9-0.6,2.9c-0.1,0.6-0.2,1.1-0.4,1.6c-0.3,1.5-0.6,3.1-0.9,4.7c-0.3,1.8,0.8,3.5,2.6,3.9
		c0.3,0.1,0.6,0.1,0.9,0c7.6-0.7,25.8-3.8,55.6-18.1C73.3,146,63,138.9,54.4,129.4z"/>
	<path class="st2" d="M67.8,47.7c0,0-18.5,4.3-15.7-10s25.3-9.6,27.1,6.1s-2.5,36-8.2,44.9"/>
	<path class="st2" d="M91.5,23.6c0,0,21.1-2,20.8,12.5s-7.9,30.8-27.7,53.6"/>
	<path class="st2" d="M141.3,129.1c0,0-9.4,10.7,3.8,14.5s17.1-13.6,11.2-19.8c-6.3-6.7-17.8-10.7-55.4-3.6"/>
	<circle class="st1" cx="91.8" cy="105" r="8.2"/>
	<path class="st3" d="M118.7,68.8l8.7,6.5c0.3,0.3,0.8,0.3,1.2,0.2l10.3-3.5c0.7-0.2,1.4,0.1,1.6,0.8c0.1,0.3,0.1,0.6,0,0.8
		l-3.5,10.2c-0.1,0.4-0.1,0.9,0.2,1.2l6.5,8.7c0.4,0.6,0.3,1.4-0.3,1.8c-0.2,0.2-0.5,0.3-0.8,0.3l-10.9-0.1c-0.4,0-0.8,0.2-1.1,0.6
		l-6.2,8.9c-0.4,0.6-1.2,0.7-1.8,0.3c-0.2-0.2-0.4-0.4-0.5-0.7L119,94.5c-0.1-0.4-0.4-0.7-0.8-0.9l-10.4-3.2
		c-0.7-0.2-1.1-0.9-0.9-1.6c0.1-0.3,0.3-0.5,0.5-0.7l8.8-6.3c0.4-0.2,0.6-0.7,0.6-1.1l-0.2-10.8c0-0.7,0.6-1.3,1.3-1.3
		C118.2,68.6,118.5,68.6,118.7,68.8z"/>
	<path class="st0" d="M133.5,34.2l5.3,4c0.2,0.2,0.5,0.2,0.7,0.1l6.3-2.2c0.4-0.1,0.9,0.1,1,0.5c0,0.2,0,0.3,0,0.5l-2.1,6.3
		c-0.1,0.2,0,0.5,0.1,0.7l4,5.3c0.3,0.3,0.2,0.8-0.1,1.1c-0.1,0.1-0.3,0.2-0.5,0.2l-6.6-0.1c-0.3,0-0.5,0.1-0.7,0.3l-3.8,5.4
		c-0.2,0.4-0.7,0.5-1.1,0.2c-0.2-0.1-0.3-0.3-0.3-0.4l-2-6.3c-0.1-0.3-0.3-0.4-0.5-0.5l-6.3-2c-0.4-0.1-0.7-0.6-0.5-1
		c0.1-0.2,0.2-0.3,0.3-0.4l5.4-3.8c0.2-0.2,0.3-0.4,0.3-0.7l-0.1-6.7c0-0.4,0.3-0.8,0.8-0.8C133.2,34,133.4,34.1,133.5,34.2z"/>
	<circle class="st1" cx="161.9" cy="86.1" r="7.3"/>
	<path class="st3" d="M39.5,145.1c-4.9-5.4-8.3-11.1-9.7-16c-3.4,10.6-6.2,21.3-8.2,32.2c-0.3,1.8,0.8,3.5,2.6,3.9
		c0.3,0.1,0.6,0.1,0.9,0c5.4-0.5,16.2-2.2,32.7-8.3C52.5,156.1,45.6,151.8,39.5,145.1z"/>
	<path class="st2" d="M114.6,123.2c-0.1,3.2-1.1,5.7-3,7.5c-7.1,6.6-24.8-1-39.5-16.9S51.3,79.7,58.5,73.1c2.4-2.2,5.9-2.8,10.1-2.1
		"/>
</g>
</svg>
