<?xml version="1.0" encoding="utf-8"?>
<!-- Generator: Adobe Illustrator 26.0.1, SVG Export Plug-In . SVG Version: 6.00 Build 0)  -->
<svg version="1.1" id="Layer_1" xmlns="http://www.w3.org/2000/svg" xmlns:xlink="http://www.w3.org/1999/xlink" x="0px" y="0px"
	 viewBox="0 0 192 192" style="enable-background:new 0 0 192 192;" xml:space="preserve">
<style type="text/css">
	.st0{fill:#FC8DC8;stroke:#FC8DC8;stroke-width:3;stroke-miterlimit:10;}
	.st1{fill:#FFFFFF;stroke:#313E4F;stroke-width:3;stroke-miterlimit:10;}
	.st2{fill:#60BCEA;stroke:#60BCEA;stroke-width:3;stroke-miterlimit:10;}
</style>
<g id="front_edge">
	<path class="st0" d="M166.7,52.8h-17.4v64.5c0,2.8-2.2,5-5,5H58.7v18c0,2.8,2.2,5,5,5h63.9l-0.4,16.8l23.9-16.8h15.5
		c2.8,0,5-2.2,5-5V57.8C171.7,55.1,169.4,52.8,166.7,52.8L166.7,52.8z"/>
	<path class="st1" d="M144.3,29.9h-119c-2.8,0-5,2.2-5,5l0.2,104.3L43,123.3c0.8-0.6,1.8-0.9,2.9-0.9h98.4c2.8,0,5-2.2,5-5V34.9
		C149.3,32.1,147.1,29.9,144.3,29.9z"/>
	<circle class="st2" cx="54.8" cy="75.8" r="7.5"/>
	<circle class="st2" cx="84.8" cy="75.8" r="7.5"/>
	<circle class="st2" cx="114.9" cy="75.8" r="7.5"/>
</g>
</svg>
