<?xml version="1.0" encoding="utf-8"?>
<!-- Generator: Adobe Illustrator 26.0.1, SVG Export Plug-In . SVG Version: 6.00 Build 0)  -->
<svg version="1.1" id="Layer_1" xmlns="http://www.w3.org/2000/svg" xmlns:xlink="http://www.w3.org/1999/xlink" x="0px" y="0px"
	 viewBox="0 0 192 192" style="enable-background:new 0 0 192 192;" xml:space="preserve">
<style type="text/css">
	.st0{fill:#FC8DC8;stroke:#FC8DC8;stroke-width:3;stroke-miterlimit:10;}
	.st1{fill:#FFFFFF;stroke:#313E4F;stroke-width:3;stroke-miterlimit:10;}
	.st2{fill:#F9C478;stroke:#F9C478;stroke-width:3;stroke-miterlimit:10;}
	.st3{fill:#60BCEA;stroke:#60BCEA;stroke-width:3;stroke-miterlimit:10;}
</style>
<g id="front_edge">
	<path class="st0" d="M36.1,50l114-0.5c3.9,0,7.1,3.1,7.1,7.1v0l0.3,77l0,0l-128.2,0.6l0,0l-0.3-77C29,53.2,32.1,50,36.1,50L36.1,50
		z"/>
	
		<rect x="38.6" y="59.9" transform="matrix(1 -4.363309e-03 4.363309e-03 1 -0.4217 0.4079)" class="st1" width="109.2" height="74"/>
	<path class="st1" d="M17.7,132.7l151.2-0.7l0,0l0,0.7c0,7-5.6,12.6-12.6,12.7l-126,0.5c-7,0-12.6-5.6-12.6-12.6L17.7,132.7
		L17.7,132.7z"/>
	<path class="st1" d="M70.7,132.5l45.1-0.2l0,0l0,1.6c0,2.6-2.1,4.8-4.7,4.8l-35.6,0.2c-2.6,0-4.8-2.1-4.8-4.7c0,0,0,0,0,0
		L70.7,132.5L70.7,132.5L70.7,132.5z"/>
	<path class="st2" d="M90.2,45.8H167c1.8,0,3.2,1.4,3.2,3.2l-0.1,67.3l-14.5-10.2c-0.5-0.4-1.2-0.6-1.9-0.6H90.2
		c-1.8,0-3.2-1.5-3.2-3.2V49C87,47.3,88.4,45.8,90.2,45.8z"/>
	<path class="st1" d="M145.2,33.5H68.5c-1.8,0-3.2,1.4-3.2,3.2c0,0,0,0,0,0l0.1,67.2l14.5-10.2c0.5-0.4,1.2-0.6,1.9-0.6h63.5
		c1.8,0,3.2-1.4,3.2-3.2V36.8C148.5,35,147,33.5,145.2,33.5z"/>
	<circle class="st3" cx="87.5" cy="63.2" r="4.8"/>
	<circle class="st3" cx="106.9" cy="63.2" r="4.8"/>
	<circle class="st3" cx="126.2" cy="63.2" r="4.8"/>
</g>
</svg>
