<?xml version="1.0" encoding="utf-8"?>
<!-- Generator: Adobe Illustrator 26.0.1, SVG Export Plug-In . SVG Version: 6.00 Build 0)  -->
<svg version="1.1" id="Layer_1" xmlns="http://www.w3.org/2000/svg" xmlns:xlink="http://www.w3.org/1999/xlink" x="0px" y="0px"
	 viewBox="0 0 192 192" style="enable-background:new 0 0 192 192;" xml:space="preserve">
<style type="text/css">
	.st0{fill:#60BCEA;stroke:#60BCEA;stroke-width:3;stroke-miterlimit:10;}
	.st1{fill:#FFFFFF;stroke:#313E4F;stroke-width:3;stroke-miterlimit:10;}
	.st2{fill:#F9C478;stroke:#F9C478;stroke-width:3;stroke-miterlimit:10;}
	.st3{fill:none;stroke:#313E4F;stroke-width:3;stroke-linecap:round;stroke-linejoin:round;}
</style>
<g id="front_edge">
	<path class="st0" d="M156.4,79c0.1-1.2,0.2-2.5,0.2-3.8c0-22-17.8-39.8-39.8-39.8c-17,0-32.1,10.8-37.7,26.8
		c-8.7-7.1-21.5-5.8-28.6,2.9c-3,3.6-4.6,8.2-4.6,12.9c0,0.1,0,0.2,0,0.3c-12,2.2-20.8,12.6-20.8,24.8c-0.4,26.2,27.8,25.1,29,24.9
		H145c1.7,0,29.5,1.6,29.1-24.9C174,92.1,166.9,82.4,156.4,79z"/>
	<path class="st1" d="M127.9,106.3c0.1-1,0.2-2.1,0.2-3.2c0-18.4-14.9-33.4-33.4-33.4c-14.2,0-26.9,9-31.5,22.5
		c-7.3-5.9-18-4.9-23.9,2.4c-2.5,3-3.8,6.9-3.8,10.8c0,0.1,0,0.2,0,0.2c-10,1.8-17.4,10.6-17.4,20.8c-0.3,21.9,23.3,21,24.3,20.9
		h76.2c1.4,0,24.7,1.3,24.3-20.9C142.7,117.2,136.7,109.1,127.9,106.3z"/>
	<circle class="st2" cx="87" cy="133.1" r="23.6"/>
	<polyline class="st3" points="96.6,135.5 87,145 77.5,135.5 	"/>
	<line class="st3" x1="87" y1="119.4" x2="87" y2="144.8"/>
</g>
</svg>
