<?xml version="1.0" encoding="utf-8"?>
<!-- Generator: Adobe Illustrator 26.0.1, SVG Export Plug-In . SVG Version: 6.00 Build 0)  -->
<svg version="1.1" id="Layer_1" xmlns="http://www.w3.org/2000/svg" xmlns:xlink="http://www.w3.org/1999/xlink" x="0px" y="0px"
	 viewBox="0 0 192 192" style="enable-background:new 0 0 192 192;" xml:space="preserve">
<style type="text/css">
	.st0{fill:#FC8DC8;stroke:#FC8DC8;stroke-width:3;stroke-miterlimit:10;}
	.st1{fill:#F9C478;stroke:#F9C478;stroke-width:3;stroke-miterlimit:10;}
	.st2{fill:#FFFFFF;stroke:#313E4F;stroke-width:3;stroke-miterlimit:10;}
	.st3{fill:#313E4F;stroke:#313E4F;stroke-width:3;stroke-linecap:round;stroke-miterlimit:10;}
	.st4{fill:none;stroke:#313E4F;stroke-width:3;stroke-linecap:round;stroke-linejoin:round;}
</style>
<g id="front_edge">
	<path class="st0" d="M51.5,34.2l87.8-0.4c3,0,5.5,2.4,5.5,5.4c0,0,0,0,0,0l0.3,59.3l0,0l-98.8,0.4l0,0l-0.3-59.3
		C46.1,36.7,48.5,34.3,51.5,34.2C51.5,34.3,51.5,34.3,51.5,34.2L51.5,34.2z"/>
	<path class="st1" d="M44,42l102.9-0.4c3.5,0,6.4,2.8,6.4,6.4v0l0.3,69.5l0,0l-115.7,0.5l0,0l-0.3-69.5C37.6,44.9,40.4,42,44,42
		L44,42z"/>
	<path class="st2" d="M38.2,51.3l114.5-0.5c3.9,0,7.1,3.1,7.2,7.1l0.3,77.4l0,0l-128.8,0.6l0,0L31,58.4
		C31.1,54.4,34.2,51.3,38.2,51.3z"/>
	<polygon class="st2" points="150.7,135.2 40.9,135.7 40.6,61.4 150.3,60.9 150.4,80.2 150.6,120.9 150.6,125.5 	"/>
	<path class="st2" d="M19.7,134.3l151.9-0.7l0,0l0,0.7c0,7-5.6,12.7-12.6,12.7l-126.6,0.6c-7,0-12.7-5.6-12.7-12.6L19.7,134.3
		L19.7,134.3z"/>
	<path class="st2" d="M73,134.1l45.3-0.2l0,0l0,1.6c0,2.6-2.1,4.8-4.8,4.8l-35.8,0.2c-2.6,0-4.7-2.1-4.8-4.7L73,134.1L73,134.1z"/>
	<rect x="55.9" y="74.4" class="st3" width="78.9" height="20.5"/>
	<path class="st2" d="M139.4,90.3L169,103l-7,4.3l7,7l-3.5,3.5l-2.2,2.2l0,0l-0.3-0.4l-6.7-6.7l-4.3,7l-12.8-29.5
		C139.3,90.4,139.3,90.3,139.4,90.3C139.4,90.3,139.4,90.3,139.4,90.3z"/>
	<line class="st4" x1="61.5" y1="105.6" x2="129.7" y2="105.6"/>
	<line class="st4" x1="70.8" y1="116.3" x2="120.4" y2="116.3"/>
</g>
</svg>
