<?xml version="1.0" encoding="utf-8"?>
<!-- Generator: Adobe Illustrator 26.0.1, SVG Export Plug-In . SVG Version: 6.00 Build 0)  -->
<svg version="1.1" id="Layer_1" xmlns="http://www.w3.org/2000/svg" xmlns:xlink="http://www.w3.org/1999/xlink" x="0px" y="0px"
	 viewBox="0 0 192 192" style="enable-background:new 0 0 192 192;" xml:space="preserve">
<style type="text/css">
	.st0{fill:#FFFFFF;stroke:#313E4F;stroke-width:3;stroke-linecap:round;stroke-linejoin:round;}
	.st1{fill:#FC8DC8;stroke:#FC8DC8;stroke-width:3;stroke-miterlimit:10;}
	.st2{fill:#F9C478;stroke:#F9C478;stroke-width:3;stroke-miterlimit:10;}
</style>
<g id="front_edge">
	<polygon class="st0" points="46.8,106.2 23.4,166.7 60.5,148 74.3,92.4 	"/>
	<polygon class="st0" points="146.6,106.2 169.9,166.7 132.9,148 119.1,92.4 	"/>
	<polygon class="st0" points="132.9,148 96.7,166.6 60.5,148 74.3,92.4 119.1,92.4 	"/>
	<path class="st1" d="M136.1,61c0-21.5-17.5-39-39-39s-39,17.5-39,39c0,6.8,1.8,13.5,5.2,19.4l0,0L90.7,128c2,3.5,6.6,4.7,10.1,2.7
		c1.1-0.6,2.1-1.6,2.7-2.7l27.4-47.4l0,0C134.3,74.6,136.1,67.9,136.1,61z M97.1,80c-10.5,0-19-8.5-19-19s8.5-19,19-19s19,8.5,19,19
		C116.2,71.5,107.7,80,97.1,80C97.2,80.1,97.1,80.1,97.1,80L97.1,80z"/>
	<polygon class="st2" points="49.3,118.1 37.8,147.9 56,138.6 62.8,111.2 	"/>
	<polygon class="st2" points="144.5,118.1 156.1,147.9 137.8,138.6 131,111.2 	"/>
</g>
</svg>
