<?xml version="1.0" encoding="utf-8"?>
<!-- Generator: Adobe Illustrator 26.0.1, SVG Export Plug-In . SVG Version: 6.00 Build 0)  -->
<svg version="1.1" id="Layer_1" xmlns="http://www.w3.org/2000/svg" xmlns:xlink="http://www.w3.org/1999/xlink" x="0px" y="0px"
	 viewBox="0 0 192 192" style="enable-background:new 0 0 192 192;" xml:space="preserve">
<style type="text/css">
	.st0{fill:#60BCEA;stroke:#60BCEA;stroke-width:3;stroke-miterlimit:10;}
	.st1{fill:#FFFFFF;stroke:#313E4F;stroke-width:3;stroke-linecap:round;stroke-linejoin:round;}
	.st2{fill:#F9C478;stroke:#F9C478;stroke-width:3;stroke-miterlimit:10;}
	.st3{fill:#313E4F;stroke:#313E4F;stroke-width:3;stroke-linecap:round;stroke-miterlimit:10;}
	.st4{fill:none;stroke:#313E4F;stroke-width:3;stroke-linecap:round;stroke-miterlimit:10;}
</style>
<g id="front_edge">
	<path class="st0" d="M90.9,21.9L41,31.1c-1.6,0.3-2.7,1.7-2.7,3.3v73.7c0,5.9,2.6,12.2,7.8,18.9c4.6,5.9,11.2,11.9,19.4,17.9
		c7.8,5.5,15.9,10.5,24.5,14.8c0.9,0.5,2.1,0.5,3,0c8.5-4.3,16.7-9.3,24.5-14.8c8.3-6,14.8-12,19.4-17.9c5.2-6.7,7.9-13,7.9-18.9
		V34.4c0-1.6-1.1-3-2.7-3.3l-49.9-9.2C91.7,21.9,91.3,21.9,90.9,21.9z"/>
	<path class="st1" d="M100.6,32.2l-49.9,9.2c-1.6,0.3-2.7,1.7-2.7,3.3v73.7c0,5.9,2.6,12.2,7.8,18.9c4.6,5.9,11.2,11.9,19.4,17.9
		c7.8,5.5,15.9,10.5,24.5,14.8c0.9,0.5,2.1,0.5,3,0c8.5-4.3,16.7-9.3,24.5-14.8c8.3-6,14.8-12,19.4-17.9c5.2-6.7,7.9-13,7.9-18.9
		V44.7c0-1.6-1.1-3-2.7-3.3l-49.9-9.2C101.4,32.1,101,32.1,100.6,32.2z"/>
	<circle class="st2" cx="102.1" cy="94.9" r="31.4"/>
	<path class="st3" d="M90.6,90.4h23.1l0,0v12.2c0,2.8-2.2,5-5,5h-13c-2.8,0-5-2.2-5-5L90.6,90.4L90.6,90.4z"/>
	<path class="st4" d="M102.1,76.8L102.1,76.8c-6.4,0-11.5,5.2-11.5,11.5v2h23.1v-2c0-0.4,0-0.7,0-1.1c-0.1-1.2-0.4-2.3-0.9-3.4
		C111,79.6,106.7,76.8,102.1,76.8z"/>
</g>
</svg>
