<?xml version="1.0" encoding="utf-8"?>
<!-- Generator: Adobe Illustrator 26.0.1, SVG Export Plug-In . SVG Version: 6.00 Build 0)  -->
<svg version="1.1" id="Layer_1" xmlns="http://www.w3.org/2000/svg" xmlns:xlink="http://www.w3.org/1999/xlink" x="0px" y="0px"
	 viewBox="0 0 192 192" style="enable-background:new 0 0 192 192;" xml:space="preserve">
<style type="text/css">
	.st0{fill:#60BCEA;stroke:#60BCEA;stroke-width:3;stroke-miterlimit:10;}
	.st1{fill:#FFFFFF;stroke:#313E4F;stroke-width:3;stroke-miterlimit:10;}
	.st2{fill:#F9C478;stroke:#F9C478;stroke-width:3;stroke-miterlimit:10;}
</style>
<g id="front_edge">
	<circle class="st0" cx="79" cy="119.5" r="16.9"/>
	<path class="st1" d="M126,103.2c0.8-0.7,0.9-1.8,0.5-2.8l-7.3-12.6c-0.5-0.9-1.6-1.3-2.6-1l-12.2,4c-1.1,0.3-2.3,0.1-3.2-0.5
		l-8-4.6c-1-0.5-1.7-1.5-2-2.6l-2.8-12.6c-0.2-1-1.1-1.7-2.2-1.8H71.8c-1,0-1.9,0.8-2.2,1.8l-2.7,12.5c-0.3,1.1-1,2-2,2.6l-8,4.6
		c-1,0.6-2.1,0.8-3.2,0.5l-12.2-4c-1-0.3-2.1,0.1-2.6,1l-7.3,12.6c-0.5,0.9-0.3,2.1,0.5,2.8l9.5,8.6c0.8,0.8,1.2,1.9,1.2,3v9.3
		c0,1.1-0.4,2.2-1.2,3l-9.5,8.6c-0.8,0.7-0.9,1.8-0.5,2.8l7.3,12.6c0.5,0.9,1.6,1.3,2.6,1l12.2-4c1.1-0.3,2.3-0.1,3.2,0.5l8,4.6
		c1,0.5,1.7,1.5,2,2.6l2.7,12.5c0.2,1,1.2,1.8,2.2,1.8h14.5c1,0,1.9-0.8,2.2-1.8l2.7-12.5c0.3-1.1,1-2,2-2.6l8-4.6
		c1-0.6,2.1-0.8,3.2-0.5l12.2,4c1,0.3,2.1-0.1,2.6-1l7.2-12.5c0.5-0.9,0.3-2.1-0.5-2.8l-9.5-8.6c-0.8-0.8-1.2-1.9-1.2-3v-9.3
		c0-1.1,0.4-2.2,1.2-3L126,103.2z M97.5,117.9c0.2,2.4-0.1,4.9-0.8,7.2c-2.3,7.2-8.6,12.3-16.1,12.9c-10.2,0.9-19.1-6.7-20-16.9
		c0,0,0,0,0,0c-0.4-4.9,1.1-9.8,4.3-13.5c4.8-5.7,12.7-8,19.8-5.7c1.7,0.6,3.4,1.5,4.9,2.5c1,0.7,1.8,1.4,2.7,2.3
		c1.3,1.3,2.4,2.8,3.3,4.4C96.6,113.1,97.3,115.5,97.5,117.9z"/>
	<path class="st2" d="M160.7,64.8c0-1.1-0.8-2-1.9-2.3L144.4,60c-1.1-0.3-2.1-1-2.7-2l-4.7-8.3c-0.6-1-0.8-2.2-0.5-3.3l5.1-13.7
		c0.3-1-0.1-2.2-1-2.8l-13.3-7.6c-1-0.5-2.2-0.3-2.9,0.5L115,34c-0.8,0.8-2,1.3-3.1,1.2h-9.5c-1.2,0-2.3-0.4-3.1-1.2l-9.3-11.2
		c-0.8-0.8-2-1-2.9-0.5l-13.3,7.7c-0.9,0.6-1.3,1.7-1,2.8l5.1,13.7c0.3,1.1,0.1,2.3-0.5,3.3L72.6,58c-0.6,1-1.5,1.8-2.7,2.1
		l-14.4,2.4c-1.1,0.3-1.9,1.2-1.9,2.3v15.4c0,1.1,0.8,2,1.9,2.3l1.8,0.3l4.1-2.4L64,68.3c0.8-3.6,4-6.2,7.6-6.2h14.8
		c1.4,0,2.8,0.4,4,1.2c5.1-9.2,16.7-12.6,25.9-7.5c1.8,1,3.5,2.3,4.9,3.8c2,2.4,3.5,5.1,4.3,8.1c0.5,1.8,0.7,3.7,0.7,5.6
		c-0.1,3.2-1.1,6.4-2.8,9.1c0.6,0.5,1.2,1.2,1.6,1.9l7.4,12.9c1.8,3.2,1.1,7.2-1.6,9.7l-9.2,8.2v3.7l2.7,3.2c0.8,0.8,2,1,2.9,0.5
		l13.3-7.6c0.9-0.6,1.4-1.7,1.1-2.8l-5.1-13.7c-0.3-1.1-0.1-2.3,0.5-3.3l4.8-8.2c0.6-1,1.5-1.8,2.6-2.1l14.4-2.4
		c1.1-0.2,1.9-1.2,1.9-2.3L160.7,64.8z"/>
</g>
</svg>
