<?xml version="1.0" encoding="utf-8"?>
<!-- Generator: Adobe Illustrator 26.0.1, SVG Export Plug-In . SVG Version: 6.00 Build 0)  -->
<svg version="1.1" id="Layer_1" xmlns="http://www.w3.org/2000/svg" xmlns:xlink="http://www.w3.org/1999/xlink" x="0px" y="0px"
	 viewBox="0 0 192 192" style="enable-background:new 0 0 192 192;" xml:space="preserve">
<style type="text/css">
	.st0{fill:#F9C478;stroke:#F9C478;stroke-width:3;stroke-miterlimit:10;}
	.st1{fill:#FFFFFF;stroke:#313E4F;stroke-width:3;stroke-linecap:round;stroke-linejoin:round;}
	.st2{fill:none;stroke:#313E4F;stroke-width:3;stroke-linecap:round;stroke-linejoin:round;}
	.st3{fill:#FC8DC8;stroke:#FC8DC8;stroke-width:3;stroke-miterlimit:10;}
</style>
<g id="front_edge">
	<path class="st0" d="M169.6,95.9c0,41.7-32.9,75.4-73.5,75.5s-73.6-33.7-73.7-75.3s32.9-75.4,73.5-75.5S169.5,54.3,169.6,95.9z"/>
	<path class="st1" d="M157.9,95.9c0,35.1-27.7,63.5-61.9,63.5s-62-28.4-62-63.4s27.7-63.5,61.9-63.5S157.9,60.9,157.9,95.9z"/>
	<path class="st2" d="M127,96c0,35.1-13.8,63.5-30.9,63.5S65.1,131.1,65,96s13.8-63.5,30.9-63.5S126.9,60.9,127,96z"/>
	<path class="st2" d="M142.1,53.6c-11.3,6.5-27.8,10.6-46.2,10.6s-34.8-4.1-46.2-10.5"/>
	<path class="st2" d="M49.9,138.4c11.3-6.5,27.8-10.6,46.2-10.6s34.9,4.1,46.2,10.5"/>
	<line class="st2" x1="34.1" y1="96.1" x2="157.9" y2="95.9"/>
	<line class="st2" x1="95.9" y1="32.5" x2="96.1" y2="159.5"/>
	<path class="st3" d="M169.1,112.7c0-15.8-12.8-28.6-28.6-28.6c-15.8,0-28.6,12.8-28.6,28.6c0,5,1.3,10,3.8,14.4l0,0l20.1,34.8
		c1.5,2.6,4.8,3.5,7.4,2c0.8-0.5,1.5-1.2,2-2l20.1-34.8l0,0C167.7,122.7,169.1,117.7,169.1,112.7z M140.4,126.7c-7.7,0-14-6.3-14-14
		s6.3-14,14-14s14,6.3,14,14C154.4,120.4,148.1,126.7,140.4,126.7L140.4,126.7z"/>
</g>
</svg>
